<mxfile host="app.diagrams.net" modified="2022-02-23T01:48:46.454Z" agent="5.0 (Windows NT 10.0; Win64; x64) AppleWebKit/537.36 (KHTML, like Gecko) Chrome/98.0.4758.80 Safari/537.36 Edg/98.0.1108.43" etag="FScpyv4FOWC2g_Oe5dZy" version="16.6.2" type="github">
  <diagram id="GcnIIn9zu56xixgi2HDi" name="Page-1">
    <mxGraphModel dx="868" dy="492" grid="1" gridSize="10" guides="1" tooltips="1" connect="1" arrows="1" fold="1" page="1" pageScale="1" pageWidth="827" pageHeight="1169" math="0" shadow="0">
      <root>
        <mxCell id="0" />
        <mxCell id="1" parent="0" />
        <mxCell id="AFKyj2wZlmawvFiLAMe_-7" style="edgeStyle=orthogonalEdgeStyle;rounded=0;orthogonalLoop=1;jettySize=auto;html=1;entryX=0;entryY=0.5;entryDx=0;entryDy=0;" edge="1" parent="1" source="AFKyj2wZlmawvFiLAMe_-1" target="AFKyj2wZlmawvFiLAMe_-2">
          <mxGeometry relative="1" as="geometry" />
        </mxCell>
        <mxCell id="AFKyj2wZlmawvFiLAMe_-8" style="edgeStyle=orthogonalEdgeStyle;rounded=0;orthogonalLoop=1;jettySize=auto;html=1;exitX=1;exitY=0.5;exitDx=0;exitDy=0;entryX=0;entryY=0.5;entryDx=0;entryDy=0;" edge="1" parent="1" source="AFKyj2wZlmawvFiLAMe_-1" target="AFKyj2wZlmawvFiLAMe_-3">
          <mxGeometry relative="1" as="geometry" />
        </mxCell>
        <mxCell id="AFKyj2wZlmawvFiLAMe_-9" style="edgeStyle=orthogonalEdgeStyle;rounded=0;orthogonalLoop=1;jettySize=auto;html=1;entryX=0;entryY=0.5;entryDx=0;entryDy=0;" edge="1" parent="1" source="AFKyj2wZlmawvFiLAMe_-1" target="AFKyj2wZlmawvFiLAMe_-4">
          <mxGeometry relative="1" as="geometry" />
        </mxCell>
        <mxCell id="AFKyj2wZlmawvFiLAMe_-10" style="edgeStyle=orthogonalEdgeStyle;rounded=0;orthogonalLoop=1;jettySize=auto;html=1;exitX=1;exitY=0.5;exitDx=0;exitDy=0;entryX=0;entryY=0.5;entryDx=0;entryDy=0;" edge="1" parent="1" source="AFKyj2wZlmawvFiLAMe_-1" target="AFKyj2wZlmawvFiLAMe_-5">
          <mxGeometry relative="1" as="geometry" />
        </mxCell>
        <mxCell id="AFKyj2wZlmawvFiLAMe_-11" style="edgeStyle=orthogonalEdgeStyle;rounded=0;orthogonalLoop=1;jettySize=auto;html=1;entryX=0;entryY=0.5;entryDx=0;entryDy=0;" edge="1" parent="1" source="AFKyj2wZlmawvFiLAMe_-1" target="AFKyj2wZlmawvFiLAMe_-6">
          <mxGeometry relative="1" as="geometry" />
        </mxCell>
        <mxCell id="AFKyj2wZlmawvFiLAMe_-1" value="Java" style="rounded=1;whiteSpace=wrap;html=1;fillColor=#e1d5e7;strokeColor=#9673a6;" vertex="1" parent="1">
          <mxGeometry x="20" y="270" width="70" height="60" as="geometry" />
        </mxCell>
        <mxCell id="AFKyj2wZlmawvFiLAMe_-16" value="" style="edgeStyle=orthogonalEdgeStyle;rounded=0;orthogonalLoop=1;jettySize=auto;html=1;" edge="1" parent="1" source="AFKyj2wZlmawvFiLAMe_-2" target="AFKyj2wZlmawvFiLAMe_-15">
          <mxGeometry relative="1" as="geometry">
            <Array as="points">
              <mxPoint x="360" y="120" />
              <mxPoint x="360" y="120" />
            </Array>
          </mxGeometry>
        </mxCell>
        <mxCell id="AFKyj2wZlmawvFiLAMe_-19" style="edgeStyle=orthogonalEdgeStyle;rounded=0;orthogonalLoop=1;jettySize=auto;html=1;entryX=0;entryY=0.5;entryDx=0;entryDy=0;" edge="1" parent="1" source="AFKyj2wZlmawvFiLAMe_-2" target="AFKyj2wZlmawvFiLAMe_-13">
          <mxGeometry relative="1" as="geometry" />
        </mxCell>
        <mxCell id="AFKyj2wZlmawvFiLAMe_-20" style="edgeStyle=orthogonalEdgeStyle;rounded=0;orthogonalLoop=1;jettySize=auto;html=1;entryX=0;entryY=0.5;entryDx=0;entryDy=0;" edge="1" parent="1" source="AFKyj2wZlmawvFiLAMe_-2" target="AFKyj2wZlmawvFiLAMe_-17">
          <mxGeometry relative="1" as="geometry" />
        </mxCell>
        <mxCell id="AFKyj2wZlmawvFiLAMe_-2" value="Java集合" style="rounded=1;whiteSpace=wrap;html=1;fillColor=#d5e8d4;strokeColor=#82b366;" vertex="1" parent="1">
          <mxGeometry x="220" y="100" width="120" height="40" as="geometry" />
        </mxCell>
        <mxCell id="AFKyj2wZlmawvFiLAMe_-3" value="Java IO" style="rounded=1;whiteSpace=wrap;html=1;" vertex="1" parent="1">
          <mxGeometry x="220" y="190" width="120" height="60" as="geometry" />
        </mxCell>
        <mxCell id="AFKyj2wZlmawvFiLAMe_-4" value="Java 多线程" style="rounded=1;whiteSpace=wrap;html=1;" vertex="1" parent="1">
          <mxGeometry x="220" y="270" width="120" height="60" as="geometry" />
        </mxCell>
        <mxCell id="AFKyj2wZlmawvFiLAMe_-5" value="Java 垃圾回收" style="rounded=1;whiteSpace=wrap;html=1;" vertex="1" parent="1">
          <mxGeometry x="220" y="370" width="120" height="60" as="geometry" />
        </mxCell>
        <mxCell id="AFKyj2wZlmawvFiLAMe_-6" value="Java 异常处理" style="rounded=1;whiteSpace=wrap;html=1;" vertex="1" parent="1">
          <mxGeometry x="220" y="460" width="120" height="60" as="geometry" />
        </mxCell>
        <mxCell id="AFKyj2wZlmawvFiLAMe_-13" value="List" style="rounded=1;whiteSpace=wrap;html=1;fillColor=#d5e8d4;strokeColor=#82b366;" vertex="1" parent="1">
          <mxGeometry x="420" y="50" width="70" height="30" as="geometry" />
        </mxCell>
        <mxCell id="AFKyj2wZlmawvFiLAMe_-15" value="Set" style="whiteSpace=wrap;html=1;rounded=1;fillColor=#d5e8d4;strokeColor=#82b366;" vertex="1" parent="1">
          <mxGeometry x="420" y="100" width="70" height="30" as="geometry" />
        </mxCell>
        <mxCell id="AFKyj2wZlmawvFiLAMe_-17" value="Map" style="whiteSpace=wrap;html=1;rounded=1;fillColor=#d5e8d4;strokeColor=#82b366;" vertex="1" parent="1">
          <mxGeometry x="420" y="150" width="70" height="30" as="geometry" />
        </mxCell>
      </root>
    </mxGraphModel>
  </diagram>
</mxfile>
